<?xml version="1.0" encoding="UTF-8"?>
<svg width="248px" height="72px" viewBox="0 0 248 72" version="1.1" xmlns="http://www.w3.org/2000/svg" xmlns:xlink="http://www.w3.org/1999/xlink">
    <!-- Generator: Sketch 51.3 (57544) - http://www.bohemiancoding.com/sketch -->
    <title>logo-color-facebookai</title>
    <desc>Created with Sketch.</desc>
    <defs>
        <polygon id="path-1" points="0 0.0735348837 7.36172757 0.0735348837 7.36172757 14.8515233 0 14.8515233"></polygon>
        <polygon id="path-3" points="0 20.1125116 247.994748 20.1125116 247.994748 0.102990033 0 0.102990033"></polygon>
    </defs>
    <g id="logo-color-facebookai" stroke="none" stroke-width="1" fill="none" fill-rule="evenodd">
        <g id="Group-49" transform="translate(0.000000, 28.000000)">
            <g id="Group-3" transform="translate(0.000000, 0.029455)">
                <mask id="mask-2" fill="white">
                    <use xlink:href="#path-1"></use>
                </mask>
                <g id="Clip-2"></g>
                <path d="M6.05993355,2.42680565 C5.14847176,2.42680565 4.88481728,2.83258638 4.88481728,3.72448007 L4.88481728,5.20341694 L7.31641196,5.20341694 L7.07335548,7.59587542 L4.88481728,7.59587542 L4.88481728,14.8515233 L1.97019934,14.8515233 L1.97019934,7.59587542 L0,7.59587542 L0,5.20341694 L1.97019934,5.20341694 L1.97019934,3.76155648 C1.97019934,1.3495299 2.94345515,0.0734833887 5.65930233,0.0734833887 C6.22832226,0.0726594684 6.79693023,0.10705814 7.36172757,0.176473422 L7.36172757,2.42577575 L6.05993355,2.42680565 Z" id="Fill-1" fill="#4267B2" mask="url(#mask-2)"></path>
            </g>
            <path d="M10.4380605,10.4060512 C10.4380605,11.8479116 10.9643395,12.7974797 12.3227781,12.7974797 C13.5184924,12.7974797 14.1261336,11.9261841 14.1261336,10.5471475 L14.1261336,9.57492159 C14.1261336,8.19691495 13.5184924,7.32458937 12.3227781,7.32458937 C10.9643395,7.32458937 10.4380605,8.27724718 10.4380605,9.71704784 L10.4380605,10.4060512 Z M7.51932292,9.75721395 C7.51932292,7.06196478 8.79536944,5.03512093 11.4710505,5.03512093 C12.9304193,5.03512093 13.822313,5.78488837 14.2517814,6.71694817 L14.2517814,5.23286179 L17.0489907,5.23286179 L17.0489907,14.8809681 L14.2476618,14.8809681 L14.2476618,13.4215993 C13.842911,14.3536591 12.9304193,15.0838585 11.4669309,15.0838585 C8.78919003,15.0838585 7.51520332,13.0570146 7.51520332,10.3607355 L7.51932292,9.75721395 Z" id="Fill-4" fill="#4267B2"></path>
            <path d="M23.1243419,5.03101163 C24.2572322,5.03101163 25.3334781,5.27406811 25.9215512,5.67881894 L25.272714,7.7468588 C24.6648668,7.45725083 24.0005811,7.30503156 23.3272322,7.30091196 C21.7463352,7.30091196 21.0614515,8.21237375 21.0614515,9.77267276 L21.0614515,10.3401478 C21.0614515,11.9004468 21.7504548,12.8119086 23.3272322,12.8119086 C24.0004781,12.807686 24.6645578,12.6557757 25.272714,12.3669917 L25.9215512,14.4340017 C25.3334781,14.8387525 24.259292,15.0828389 23.1243419,15.0828389 C19.6988934,15.0828389 18.1385944,13.2382874 18.1385944,10.2793837 L18.1385944,9.83343688 C18.1396243,6.87350332 19.6988934,5.03101163 23.1243419,5.03101163" id="Fill-6" fill="#4267B2"></path>
            <path d="M29.2244415,9.16504186 L32.7508203,9.16504186 L32.7508203,8.92198538 C32.7508203,7.86839734 32.3254714,7.03726777 31.048395,7.03726777 C29.7311525,7.03726777 29.2244415,7.86839734 29.2244415,9.16504186 M26.305704,10.4215203 L26.305704,9.57082259 C26.305704,6.83437741 27.866003,5.03102193 31.0432455,5.03102193 C34.0433452,5.03102193 35.3605877,6.85497542 35.3605877,9.52962658 L35.3605877,11.0744771 L29.2244415,11.0744771 C29.2852056,12.3917196 29.8732787,12.9797927 31.4902223,12.9797927 C32.5850063,12.9797927 33.7395246,12.7563043 34.5912522,12.3917196 L35.1226807,14.391786 C34.3523153,14.7975668 32.7714183,15.1013874 31.3728136,15.1013874 C27.6837106,15.1034472 26.305704,13.2588957 26.305704,10.4215203" id="Fill-8" fill="#4267B2"></path>
            <path d="M43.2692027,9.69237143 C43.2692027,8.33393289 42.7418937,7.32360066 41.343289,7.32360066 C40.1475748,7.32360066 39.4997674,8.17532824 39.4997674,9.55333488 L39.4997674,10.5667568 C39.4997674,11.9447635 40.1475748,12.796491 41.343289,12.796491 C42.7418937,12.796491 43.2692027,11.7830691 43.2692027,10.4277203 L43.2692027,9.69237143 Z M46.1879402,10.3607767 C46.1879402,13.0570558 44.8902658,15.0838997 42.2156146,15.0838997 C40.7562458,15.0838997 39.7438538,14.3537003 39.3370432,13.4216405 L39.3370432,14.8810093 L36.5810299,14.8810093 L36.5810299,0.385162126 L39.4997674,0.121507641 L39.4997674,6.56662392 C39.9251163,5.71592625 40.8571761,5.02692292 42.2156146,5.02692292 C44.8933555,5.02692292 46.1879402,7.05376678 46.1879402,9.74901595 L46.1879402,10.3607767 Z" id="Fill-10" fill="#4267B2"></path>
            <path d="M53.8483595,9.610999 C53.8483595,8.33392259 53.3210505,7.32050066 51.9636419,7.32050066 C50.6062332,7.32050066 50.0778944,8.33392259 50.0778944,9.610999 L50.0778944,10.5028927 C50.0778944,11.7799691 50.6052033,12.793391 51.9636419,12.793391 C53.3220804,12.793391 53.8483595,11.7799691 53.8483595,10.5028927 L53.8483595,9.610999 Z M47.1601867,10.3000023 L47.1601867,9.81388937 C47.1601867,7.03315847 48.7410837,5.03103223 51.9636419,5.03103223 C55.1862,5.03103223 56.767097,7.03727807 56.767097,9.81388937 L56.767097,10.3000023 C56.767097,13.0807332 55.1862,15.0838894 51.9636419,15.0838894 C48.7410837,15.0838894 47.1601867,13.0766136 47.1601867,10.3000023 Z" id="Fill-12" fill="#4267B2"></path>
            <path d="M64.4326452,9.610999 C64.4326452,8.33392259 63.9053362,7.32050066 62.5479276,7.32050066 C61.1905189,7.32050066 60.6621801,8.33392259 60.6621801,9.610999 L60.6621801,10.5028927 C60.6621801,11.7799691 61.189489,12.793391 62.5479276,12.793391 C63.9063661,12.793391 64.4326452,11.7799691 64.4326452,10.5028927 L64.4326452,9.610999 Z M57.738293,10.3000023 L57.738293,9.81388937 C57.738293,7.03315847 59.3202199,5.03103223 62.5427781,5.03103223 C65.7653362,5.03103223 67.3462332,7.03727807 67.3462332,9.81388937 L67.3462332,10.3000023 C67.3462332,13.0807332 65.7643063,15.0838894 62.5427781,15.0838894 C59.3212498,15.0838894 57.738293,13.0766136 57.738293,10.3000023 Z" id="Fill-14" fill="#4267B2"></path>
            <polygon id="Fill-16" fill="#4267B2" points="71.3576744 9.83447708 74.2362458 5.23288239 77.3372757 5.23288239 74.3165781 9.99617143 77.4618937 14.8809887 74.3577741 14.8809887 71.3576744 10.1578658 71.3576744 14.8809887 68.4389369 14.8809887 68.4389369 0.385141528 71.3576744 0.121487043"></polygon>
            <path d="M89.8762711,3.12227674 L87.3612545,9.93506744 L92.3706897,9.93506744 L89.8762711,3.12227674 Z M95.5777993,14.9022767 L94.2152412,14.9022767 L92.832085,11.1503498 L86.8998591,11.1503498 L85.516703,14.9022767 L84.1541449,14.9022767 L89.1223841,1.80194452 L90.694012,1.80194452 L95.5777993,14.9022767 Z" id="Fill-18" fill="#4267B2"></path>
            <path d="M98.6994169,14.9022664 L97.3996827,14.9022664 L97.3996827,5.30256545 L98.6994169,5.02964186 L98.6994169,7.08429302 C99.328686,5.84841262 100.272075,5.02964186 101.529583,5.02964186 C102.117347,5.03345249 102.694606,5.18618671 103.207291,5.4735289 L102.871543,6.6888113 C102.429716,6.41877143 101.922799,6.27386445 101.404965,6.26964186 C100.398752,6.26964186 99.4553638,7.0245588 98.7004468,8.74140266 L98.6994169,14.9022664 Z" id="Fill-20" fill="#4267B2"></path>
            <path d="M108.150812,15.2163654 C106.327889,15.2163654 105.510148,14.2101528 105.576061,12.1987575 L105.722307,6.51782724 L104.255729,6.43440532 L104.318553,5.61666445 L105.760414,5.28194684 L105.823238,3.10164784 L107.059118,3.10164784 L106.996294,5.34477076 L110.210613,5.34477076 L110.146759,6.49722924 L106.957158,6.49722924 L106.811942,12.2399535 C106.769716,13.4562658 107.209483,14.043309 108.215696,14.043309 C108.844965,14.043309 109.473204,13.8373289 110.060248,13.5819136 L110.290945,14.714804 C109.621098,15.0317043 108.89162,15.2026678 108.150812,15.2163654" id="Fill-22" fill="#4267B2"></path>
            <path d="M112.217858,14.9053355 L112.217858,5.30254485 L113.517592,5.02962126 L113.517592,14.9022458 L112.217858,14.9053355 Z M112.867725,3.10473754 C112.280682,3.10473754 111.98716,2.64334219 111.98716,2.14075083 C111.98716,1.65875748 112.280682,1.21384053 112.867725,1.21384053 C113.454768,1.21384053 113.74726,1.65463787 113.74726,2.14075083 C113.74726,2.64025249 113.453738,3.10473754 112.867725,3.10473754 Z" id="Fill-24" fill="#4267B2"></path>
            <path d="M122.672407,14.9022664 L122.672407,5.30256545 L123.972141,5.02964186 L123.972141,14.9022664 L122.672407,14.9022664 Z M123.326394,3.10475814 C122.739248,3.10475814 122.445829,2.64336279 122.445829,2.14077143 C122.445829,1.65877807 122.739248,1.21386113 123.326394,1.21386113 C123.891809,1.21386113 124.206855,1.65465847 124.206855,2.14077143 C124.206855,2.64027309 123.891809,3.10475814 123.326394,3.10475814 Z M121.146095,1.90698405 C120.706327,1.70100399 120.202706,1.50841262 119.679517,1.50841262 C118.61048,1.50841262 118.086261,2.20050565 118.086261,3.75153555 L118.086261,5.34479136 L121.103869,5.34479136 L121.041045,6.49724983 L118.086261,6.49724983 L118.086261,14.9022664 L116.807125,14.9022664 L116.807125,6.53947575 L115.256095,6.43648571 L115.340547,5.61874485 L116.782407,5.28402724 L116.803005,3.77419336 C116.845231,1.23857874 118.019317,0.31578804 119.695995,0.31578804 C120.305799,0.331030565 120.905819,0.473774751 121.457125,0.734957475 C121.461244,0.754525581 121.146095,1.92758206 121.146095,1.90698405 Z" id="Fill-26" fill="#4267B2"></path>
            <path d="M130.975474,15.1741189 C128.083514,15.1741189 126.280158,13.0998997 126.280158,10.1276073 C126.280158,7.12956744 128.271985,5.03372027 130.997102,5.03372027 C132.170158,5.03372027 133.176371,5.32724186 133.994112,5.85146113 L133.658364,7.01833821 C132.86565,6.50637475 131.940696,6.23684983 130.997102,6.24282326 C128.921852,6.24282326 127.622015,7.79385316 127.622015,10.0781721 C127.622015,12.4263449 128.984676,13.9557468 131.020686,13.9557468 C131.965723,13.9486405 132.889235,13.6724213 133.683082,13.1596339 L133.954975,14.3543183 C133.055357,14.89481 132.024839,15.1783415 130.975474,15.1741189" id="Fill-28" fill="#4267B2"></path>
            <path d="M135.984878,14.9053355 L135.984878,5.30254485 L137.283582,5.02962126 L137.283582,14.9022458 L135.984878,14.9053355 Z M136.633715,3.10473754 C136.047702,3.10473754 135.75418,2.64334219 135.75418,2.14075083 C135.75418,1.65875748 136.047702,1.21384053 136.633715,1.21384053 C137.219729,1.21384053 137.51428,1.65463787 137.51428,2.14075083 C137.51428,2.64025249 137.220758,3.10473754 136.633715,3.10473754 Z" id="Fill-30" fill="#4267B2"></path>
            <path d="M145.164359,9.97624286 C141.873828,10.3542163 140.699741,11.0875053 140.699741,12.3656116 C140.699741,13.395512 141.53808,14.0433193 142.669941,14.0433193 C143.699841,14.0433193 144.577316,13.4562761 145.164359,12.7847811 L145.164359,9.97624286 Z M145.185987,13.7497977 C144.53612,14.5459106 143.508279,15.1741498 142.376419,15.1741498 C140.616319,15.1741498 139.338213,14.0412595 139.338213,12.5128874 C139.338213,10.7733857 140.699741,9.34800365 145.164359,9.09670797 L145.164359,8.53026279 C145.164359,7.0214588 144.493894,6.24594385 142.898578,6.24594385 C141.85117,6.24594385 140.572034,6.79076113 139.754293,7.39840233 L139.459741,6.18311993 C140.319708,5.57547874 141.765688,5.02963156 143.023196,5.02963156 C145.245721,5.02963156 146.481602,6.03584419 146.461004,8.46743887 L146.461004,13.0783027 C146.461004,13.7703957 146.586754,14.0639173 147.42499,14.0433193 L147.341671,15.1123558 C146.08406,15.1957777 145.391967,14.6921565 145.245721,13.7497977 L145.185987,13.7497977 Z" id="Fill-32" fill="#4267B2"></path>
            <polygon id="Fill-34" fill="#4267B2" points="149.335455 14.9022664 149.335455 0.775123588 150.63416 0.5022 150.63416 14.9022664"></polygon>
            <mask id="mask-4" fill="white">
                <use xlink:href="#path-3"></use>
            </mask>
            <g id="Clip-37"></g>
            <polygon id="Fill-36" fill="#4267B2" mask="url(#mask-4)" points="158.462422 14.9022458 159.782754 14.9022458 159.782754 1.80191362 158.462422 1.80191362"></polygon>
            <path d="M169.088934,14.9022664 L169.088934,8.69814684 C169.088934,7.0214691 168.418468,6.26655216 166.972488,6.26655216 C165.924153,6.26655216 164.855116,6.83299734 164.0589,7.6291103 L164.0589,14.9022664 L162.759166,14.9022664 L162.759166,5.30256545 L164.0589,5.02964186 L164.0589,6.60641927 C165.064083,5.60020664 166.324681,5.03376146 167.328834,5.03376146 C169.256807,5.03376146 170.388668,6.22844585 170.388668,8.32429302 L170.388668,14.906386 L169.088934,14.9022664 Z" id="Fill-38" fill="#4267B2" mask="url(#mask-4)"></path>
            <path d="M175.85851,15.2163654 C174.034556,15.2163654 173.216815,14.2101528 173.283759,12.1987575 L173.431035,6.51782724 L171.963427,6.43440532 L172.02625,5.61666445 L173.468111,5.28194684 L173.530935,3.10164784 L174.766815,3.10164784 L174.702961,5.34477076 L177.910071,5.34477076 L177.847247,6.49722924 L174.661765,6.49722924 L174.51449,12.2399535 C174.473294,13.4562658 174.913061,14.043309 175.919274,14.043309 C176.54741,14.043309 177.176782,13.8373289 177.763825,13.5819136 L177.994523,14.714804 C177.325912,15.0308804 176.597978,15.2018439 175.85851,15.2163654" id="Fill-39" fill="#4267B2" mask="url(#mask-4)"></path>
            <path d="M185.730063,9.09670797 C185.747159,8.95767143 185.75406,8.81760498 185.750661,8.67753854 C185.750661,7.20993056 184.954651,6.20577774 183.445744,6.20577774 C181.726841,6.20577774 180.615578,7.52610997 180.406611,9.11936578 L185.730063,9.09670797 Z M180.322056,10.2491664 C180.364282,12.4119571 181.660927,13.9568076 183.675515,13.9568076 C184.661542,13.9617512 185.628618,13.6856349 186.463352,13.1606947 L186.715678,14.3553791 C185.782794,14.9048309 184.716847,15.1873326 183.634216,15.17209 C180.866874,15.17209 178.999664,13.0978708 178.999664,10.1842827 C178.999664,7.16564485 180.927638,5.02757176 183.531226,5.02757176 C185.648701,5.02757176 187.032887,6.41175781 187.032887,8.5704289 C187.031857,9.08702691 186.962648,9.60125615 186.826907,10.0998309 L180.329369,10.1420568 L180.322056,10.2491664 Z" id="Fill-40" fill="#4267B2" mask="url(#mask-4)"></path>
            <polygon id="Fill-41" fill="#4267B2" mask="url(#mask-4)" points="189.334714 14.9022664 189.334714 0.775123588 190.633419 0.5022 190.633419 14.9022664"></polygon>
            <polygon id="Fill-42" fill="#4267B2" mask="url(#mask-4)" points="193.399803 14.9022664 193.399803 0.775123588 194.699434 0.5022 194.699434 14.9022664"></polygon>
            <path d="M197.508045,14.9053355 L197.508045,5.30254485 L198.807779,5.02962126 L198.807779,14.9022458 L197.508045,14.9053355 Z M198.157912,3.10473754 C197.570868,3.10473754 197.277347,2.64334219 197.277347,2.14075083 C197.277347,1.65875748 197.570765,1.21384053 198.157912,1.21384053 C198.744955,1.21384053 199.037447,1.65463787 199.037447,2.14075083 C199.037447,2.64025249 198.743925,3.10473754 198.157912,3.10473754 Z" id="Fill-43" fill="#4267B2" mask="url(#mask-4)"></path>
            <path d="M204.948065,11.1080827 C206.415673,11.1080827 207.338464,10.0606741 207.338464,8.59306611 C207.338464,7.16768405 206.499095,6.09864751 204.885241,6.09864751 C203.396932,6.09864751 202.475171,7.16768405 202.475171,8.65589003 C202.475171,10.0390462 203.396932,11.1080827 204.948065,11.1080827 M201.657534,17.0609066 C201.657534,18.193797 202.893414,19.031106 204.927467,19.031106 C206.918264,19.031106 208.532118,18.0671193 208.532118,16.7653252 C208.532118,15.6324349 207.526936,15.2359233 205.61956,15.2359233 C204.969693,15.2359233 204.151952,15.2142953 203.607032,15.1720694 C202.454676,15.4892787 201.657534,16.2431658 201.657534,17.0609066 M201.17554,13.3934316 C201.17554,12.5962887 201.867633,11.9052256 202.748198,11.5694781 C201.821288,11.0030329 201.196035,9.95562425 201.196035,8.63529203 C201.196035,6.60226877 202.705869,5.03064086 204.969693,5.03064086 C205.76148,5.0178701 206.542763,5.2131392 207.235474,5.59708605 L209.896736,5.39110598 L209.95956,6.6908402 L207.843012,6.48486013 C208.30451,6.94522558 208.61863,7.86801628 208.61863,8.64765083 C208.61863,10.6806741 207.025374,12.1688801 204.887301,12.1688801 C204.399746,12.1634216 203.916929,12.0710395 203.461816,11.8959565 C202.959225,12.1019365 202.392779,12.5035977 202.392779,13.0494449 C202.392779,13.657086 202.854278,14.0340296 204.573078,14.0340296 L205.808959,14.0340296 C208.595972,14.0340296 209.791686,14.9774183 209.791686,16.5490462 C209.791686,18.6665213 207.422916,20.1125013 204.739922,20.1125013 C202.165171,20.1125013 200.401055,18.979611 200.401055,17.3039631 C200.401055,16.2143286 201.239394,15.2503419 202.476304,14.9351924 C201.657534,14.629312 201.17554,14.0844947 201.17554,13.3934316" id="Fill-44" fill="#4267B2" mask="url(#mask-4)"></path>
            <path d="M217.585962,9.09670797 C217.603882,8.95777442 217.611091,8.81760498 217.60759,8.67753854 C217.60759,7.20993056 216.810447,6.20577774 215.30154,6.20577774 C213.582739,6.20577774 212.472507,7.52610997 212.262407,9.11936578 L217.585962,9.09670797 Z M212.178985,10.2491664 C212.220078,12.4119571 213.517855,13.9568076 215.532341,13.9568076 C216.518367,13.9616482 217.485341,13.6855319 218.320281,13.1606947 L218.571473,14.3553791 C217.63859,14.9048309 216.572643,15.1873326 215.490012,15.17209 C212.723802,15.17209 210.855563,13.0978708 210.855563,10.1842827 C210.855563,7.16564485 212.783434,5.02757176 215.387022,5.02757176 C217.5046,5.02757176 218.888683,6.41175781 218.888683,8.5704289 C218.887756,9.08702691 218.818444,9.60125615 218.682703,10.0998309 L212.185164,10.1420568 L212.178985,10.2491664 Z" id="Fill-45" fill="#4267B2" mask="url(#mask-4)"></path>
            <path d="M227.51625,14.9022664 L227.51625,8.69814684 C227.51625,7.0214691 226.845785,6.26655216 225.399805,6.26655216 C224.351367,6.26655216 223.28233,6.83299734 222.486217,7.6291103 L222.486217,14.9022664 L221.186483,14.9022664 L221.186483,5.30256545 L222.486217,5.02964186 L222.486217,6.60641927 C223.49243,5.60020664 224.751998,5.03376146 225.756151,5.03376146 C227.684124,5.03376146 228.815985,6.22844585 228.815985,8.32429302 L228.815985,14.906386 L227.51625,14.9022664 Z" id="Fill-46" fill="#4267B2" mask="url(#mask-4)"></path>
            <path d="M235.715225,15.1741189 C232.822235,15.1741189 231.01991,13.0998997 231.01991,10.1276073 C231.01991,7.12956744 233.011737,5.03372027 235.735823,5.03372027 C236.910013,5.03372027 237.916122,5.32724186 238.733966,5.85146113 L238.398219,7.02554751 C237.605195,6.51348106 236.67983,6.24395615 235.735823,6.25003256 C233.660677,6.25003256 232.36187,7.80106246 232.36187,10.0853814 C232.36187,12.4335542 233.723398,13.9629561 235.760541,13.9629561 C236.705268,13.9559528 237.628471,13.6798365 238.421803,13.1668432 L238.69483,14.3615276 C237.794388,14.8993415 236.764076,15.1802983 235.715225,15.1741189" id="Fill-47" fill="#4267B2" mask="url(#mask-4)"></path>
            <path d="M246.697135,9.09670797 C246.715055,8.95777442 246.722264,8.81760498 246.718763,8.67753854 C246.718763,7.20993056 245.92162,6.20577774 244.412713,6.20577774 C242.693912,6.20577774 241.58368,7.52610997 241.37358,9.11936578 L246.697135,9.09670797 Z M241.290158,10.2491664 C241.331251,12.4119571 242.629029,13.9568076 244.643514,13.9568076 C245.62954,13.9616482 246.596514,13.6855319 247.431454,13.1606947 L247.682647,14.3553791 C246.749763,14.9048309 245.683816,15.1873326 244.601185,15.17209 C241.834872,15.17209 239.966633,13.0978708 239.966633,10.1842827 C239.966633,7.16564485 241.894607,5.02757176 244.493148,5.02757176 C246.61052,5.02757176 247.994809,6.41175781 247.994809,8.5704289 C247.993676,9.08702691 247.924467,9.60125615 247.788829,10.0998309 L241.291188,10.1420568 L241.290158,10.2491664 Z" id="Fill-48" fill="#4267B2" mask="url(#mask-4)"></path>
        </g>
    </g>
</svg>