<svg width="114" height="30" xmlns="http://www.w3.org/2000/svg" xmlns:xlink="http://www.w3.org/1999/xlink"><defs><path id="a" d="M0 0h10.5v19.7H.1z"/></defs><g fill="none" fill-rule="evenodd"><path d="M16.2 6.7l-1.6 1.7a7.1 7.1 0 1 1-10.1 0L8.9 4l.6-.6V0L2.8 6.7a9.5 9.5 0 1 0 13.4 0" fill="#EE4C2C"/><path d="M13.7 6A1.2 1.2 0 1 0 12 4.1a1.2 1.2 0 0 0 1.7 1.7" fill="#EE4C2C"/><path d="M34.8 16.6h-2.5V23h-1.8V5H35c4.7 0 7 2.3 7 5.6 0 4-2.8 6-7.2 6m.1-9.9h-2.6V15l2.6-.1c3.4 0 5.2-1.4 5.2-4.2 0-2.5-1.8-4-5.2-4M50.2 22.8l-1 2.8c-1.2 3.2-2.5 4.2-4.3 4.2a6 6 0 0 1-2.5-.6l.5-1.7c.7.4 1.3.6 2 .6 1 0 1.8-.5 2.7-3l1-2.4-5.2-12.9h2l4 10.9 4-10.9h2l-5.2 13z" fill="#262626"/><path fill="#262626" d="M61.4 6.8v16.1h-1.8V6.8h-6.3V5h14.4v1.8zM72.9 23.3c-3.7 0-6.4-2.7-6.4-6.9s2.8-7 6.5-7 6.3 2.8 6.3 7c0 4.1-2.8 7-6.4 7m0-12.3c-2.8 0-4.6 2.2-4.6 5.3 0 3.2 1.9 5.3 4.7 5.3 2.7 0 4.6-2.2 4.6-5.3 0-3.2-1.9-5.3-4.7-5.3M83.8 23H82V9.7l1.8-.3v2.8c.8-1.7 2.1-2.8 3.8-2.8.9 0 1.7.2 2.3.6l-.4 1.6c-.6-.3-1.3-.6-2-.6-1.4 0-2.7 1-3.7 3.4V23zM97 23.3c-4 0-6.5-2.8-6.5-6.9 0-4 2.7-7 6.5-7 1.6 0 3 .5 4 1.2l-.4 1.6c-1-.7-2.3-1-3.6-1-2.9 0-4.6 2-4.6 5.2s1.8 5.3 4.6 5.3c1.3 0 2.6-.5 3.6-1.1l.4 1.6a7.8 7.8 0 0 1-4 1.1"/><g transform="translate(103.3 3.2)"><mask id="b" fill="#fff"><use xlink:href="#a"/></mask><path d="M8.7 19.7v-8.4C8.7 9 7.8 7.9 6 7.9a6 6 0 0 0-4 1.9v10H0V.3L1.9.1v8.2c1.3-1.3 3-2 4.5-2 2.6 0 4.1 1.6 4.1 4.4v9H8.7z" fill="#262626" mask="url(#b)"/></g></g></svg>